<?xml version="1.0" encoding="UTF-8" standalone="no"?>
<svg
   xmlns:dc="http://purl.org/dc/elements/1.1/"
   xmlns:cc="http://creativecommons.org/ns#"
   xmlns:rdf="http://www.w3.org/1999/02/22-rdf-syntax-ns#"
   xmlns:svg="http://www.w3.org/2000/svg"
   xmlns="http://www.w3.org/2000/svg"
   version="1.1"
   id="svg2"
   width="256"
   height="256"
   viewBox="0 0 255.99999 256">
  <metadata
     id="metadata8">
    <rdf:RDF>
      <cc:Work
         rdf:about="">
        <dc:format>image/svg+xml</dc:format>
        <dc:type
           rdf:resource="http://purl.org/dc/dcmitype/StillImage" />
        <dc:title></dc:title>
      </cc:Work>
    </rdf:RDF>
  </metadata>
  <defs
     id="defs6" />
  <path
     style="fill:#552200;stroke-width:0.853333"
     d="m 0.0850566,321.78473 c 0.046784,-22.64533 0.39250489,-40.21332 0.76827389,-39.03999 0.37577011,1.17334 0.72149101,3.30454 0.76827491,4.73599 0.046784,1.43148 0.5458562,3.06349 1.1090557,3.62668 0.7964474,0.79646 0.7964474,1.024 0,1.024 -0.5631995,0 -1.023999,0.49944 -1.023999,1.10988 0,1.34568 1.9634866,5.70917 2.5599981,5.68913 1.4159418,-0.0476 3.1486637,-6.21788 3.1793067,-11.32163 0.019143,-3.19144 0.2218499,-5.98965 0.4504193,-6.21822 0.2285692,-0.22857 -0.1581758,-2.03339 -0.85943,-4.0107 -0.8299385,-2.34014 -1.4106616,-8.16723 -1.6635955,-16.69279 -0.2299973,-7.7522 -0.8549953,-14.4196 -1.531392,-16.33672 -0.7614195,-2.1581 -0.9108982,-4.26733 -0.4478965,-6.3202 0.3944248,-1.74884 0.3628534,-3.28636 -0.073021,-3.55576 -0.4223614,-0.26103 -0.583034,-1.94621 -0.3570497,-3.7448 0.3034238,-2.41493 -0.030464,-3.83127 -1.2765566,-5.41545 C 0.0388835,223.21835 3.4e-6,221.62183 3.4e-6,156.0248 c 0,-65.208721 0.047804,-67.204887 1.6589815,-69.253151 0.9124406,-1.159976 1.4709686,-2.599031 1.2411638,-3.197879 -0.229798,-0.598855 0.1714302,-1.577847 0.8916224,-2.175559 0.720191,-0.597711 1.0623352,-1.486561 0.76032,-1.975232 -0.3020161,-0.488673 -0.1492994,-0.641385 0.339372,-0.339377 0.4886715,0.302024 1.381433,-0.04488 1.983916,-0.770777 0.6024832,-0.725946 2.3764336,-1.855154 3.9421159,-2.509336 3.395472,-1.418717 4.11218,-3.089124 4.919692,-11.46629 0.336882,-3.494881 1.349832,-7.799584 2.25099,-9.566009 0.901158,-1.766411 1.638471,-3.627367 1.638471,-4.13544 0,-0.508063 1.631998,-3.068998 3.626676,-5.690951 1.994667,-2.621955 4.010662,-5.370808 4.479997,-6.108551 0.469324,-0.737754 1.545288,-1.936616 2.391026,-2.664148 1.331915,-1.145776 1.981292,-2.720369 2.237017,-5.424256 0.03593,-0.379704 0.425034,-0.468024 0.864746,-0.196272 0.690595,0.426808 5.228868,-3.572662 8.287834,-7.303877 0.539366,-0.657888 2.92137,-2.540151 5.293368,-4.182815 2.371986,-1.642671 4.330702,-3.440799 4.352688,-3.995838 0.02199,-0.55504 0.711972,-1.22472 1.53331,-1.488191 0.821326,-0.263464 2.516949,-1.345328 3.768025,-2.40416 1.251097,-1.058824 2.97909,-2.382559 3.840003,-2.9416308 C 61.777051,7.2767486 61.761989,7.2157086 60.03793,7.1683966 59.03214,7.1408766 57.976147,6.5108048 57.691261,5.7684291 56.992483,3.9474297 57.031899,3.7048778 58.026637,3.7048778 c 0.469336,0 0.853333,0.5760079 0.853333,1.2800075 0,0.7039918 0.342911,1.2799996 0.762029,1.2799996 1.11546,0 1.749254,-2.1352712 1.226811,-4.1331105 -0.45381,-1.73539137 -0.375133,-1.73778336 58.72501,-1.78641535 39.0003,-0.03208 58.74296,0.23695192 57.89942,0.78901575 -1.02911,0.6735198 -0.86184,0.8666156 0.85334,0.9852077 1.17332,0.081144 2.60919,0.1303599 3.19081,0.1093679 0.58161,-0.02096 0.87409,0.2586479 0.64994,0.6213278 -0.74732,1.2092076 4.22841,1.5980874 5.5459,0.4334318 1.3449,-1.1888715 2.78058,-1.5544955 5.44498,-1.3866475 1.358,0.085568 1.52765,0.5776718 1.10242,3.1981189 -0.46551,2.8686149 -0.16728,3.4349987 4.04398,7.6799966 3.74325,3.773271 5.0654,4.582983 7.48332,4.582983 3.20493,0 5.08205,1.390623 8.3663,6.197926 1.16658,1.707543 2.97948,3.320087 4.02871,3.583423 1.04921,0.263344 2.35802,1.338263 2.90843,2.388726 1.43468,2.738096 5.96954,6.645655 6.98451,6.018366 0.48916,-0.302305 0.59806,-0.106646 0.25215,0.453039 -0.35687,0.577444 -0.0791,0.985184 0.67113,0.985184 0.70401,0 1.55398,0.443337 1.88888,0.985183 0.40484,0.655055 0.20726,0.764433 -0.58965,0.326423 -0.65918,-0.362327 -0.0464,0.383723 1.36149,1.657872 1.40799,1.274151 3.99999,2.896957 5.76,3.606232 2.2903,0.922997 3.2037,1.80907 3.21305,3.116936 0.0102,1.487556 0.16482,1.589329 0.82915,0.547345 0.56263,-0.882437 0.6601,-0.308879 0.31385,1.846674 -0.34779,2.16521 -0.078,3.732393 0.87752,5.096529 1.13811,1.62486 1.37976,1.707174 1.37976,0.469983 0,-1.242371 0.29713,-1.34088 1.73058,-0.573727 0.95179,0.509399 1.49319,1.310212 1.2031,1.779593 -0.29008,0.469369 0.12342,2.225004 0.91893,3.901384 1.16633,2.457847 1.25591,3.466004 0.46269,5.206915 -0.63888,1.40216 -0.69209,2.450539 -0.15181,2.99081 0.52413,0.524131 0.5392,1.601637 0.0408,2.912722 -0.50752,1.334851 -0.47439,2.672671 0.0924,3.731645 0.609,1.137855 0.60903,1.65079 1.6e-4,1.65079 -0.48586,0 -0.88337,-0.447995 -0.88337,-0.995543 0,-0.547557 -0.15391,-0.83556 -0.34203,-0.640003 -0.18813,0.195556 0.12792,3.331544 0.70234,6.968887 0.57441,3.637326 0.72833,6.613326 0.34205,6.613326 -0.9985,0 -0.8732,3.207022 0.15001,3.839406 0.51124,0.31596 0.68633,3.283455 0.4375,7.41471 -0.50419,8.370603 -0.55449,22.795043 -0.12098,34.693273 0.17689,4.85507 0.007,10.22137 -0.37702,11.92511 -0.48405,2.14623 -0.38533,3.29689 0.3214,3.74618 0.77723,0.49409 0.76613,0.65161 -0.0465,0.66157 -0.58667,0.006 -1.06666,0.58904 -1.06666,1.29305 0,0.704 0.47999,1.28587 1.06666,1.29307 0.73811,0.009 0.77746,0.20617 0.12776,0.63999 -2.85581,1.90688 -4.33503,12.37759 -2.12485,15.04071 0.50359,0.60679 0.68256,1.33631 0.39769,1.62118 -0.28486,0.28485 -0.0963,1.72726 0.41892,3.20532 0.82808,2.3754 0.7442,2.73779 -0.7222,3.12128 -1.4871,0.38887 -1.64825,1.1721 -1.55504,7.55721 0.0706,4.83519 0.44712,7.25502 1.17212,7.53325 0.76212,0.29243 0.98484,2.25947 0.77738,6.86558 -0.28354,6.29549 -0.24083,6.45571 1.72112,6.45571 1.10653,0 2.51931,0.50149 3.13949,1.11442 0.6202,0.61293 1.79962,1.36888 2.62095,1.67988 1.40701,0.53281 1.49329,5.02851 1.49329,77.81888 l -3e-5,77.25342 H 127.99993 0 Z m 28.5015964,-5.76001 c -0.290066,-0.46932 -0.888726,-0.85333 -1.330363,-0.85333 -0.441637,0 -0.802966,0.38401 -0.802966,0.85333 0,0.46934 0.598659,0.85335 1.330351,0.85335 0.731703,0 1.093043,-0.38401 0.802978,-0.85335 z m 10.23999,-3.41333 c 0.290066,-0.46932 0.143389,-0.85331 -0.325947,-0.85331 -0.469323,0 -1.090652,0.38399 -1.380717,0.85331 -0.290065,0.46933 -0.143389,0.85334 0.325935,0.85334 0.469348,0 1.090664,-0.38401 1.380729,-0.85334 z m 5.533599,-4.15286 c -0.0068,-0.29724 -0.391192,-1.11646 -0.853333,-1.82047 -0.746909,-1.13776 -0.933627,-1.13776 -1.680527,0 -1.36876,2.08507 -1.00793,3.29057 0.840265,2.80726 0.938659,-0.24546 1.70078,-0.68952 1.693595,-0.98679 z M 17.404794,306.1344 c 0.598671,-1.56012 -0.124588,-3.14236 -1.147431,-2.51021 -0.380256,0.23501 -0.89377,1.20127 -1.141141,2.14724 -0.540556,2.06707 1.50986,2.39225 2.288572,0.36297 z m 30.381841,-2.02954 c 0,-0.45461 0.582896,-0.60289 1.295331,-0.32949 2.06074,0.79078 6.189098,-1.3619 6.727759,-3.50811 0.270368,-1.07723 1.221268,-2.14939 2.113111,-2.38262 1.900258,-0.49694 3.946468,0.54173 3.258908,1.65421 -0.262286,0.42437 0.348694,0.8338 1.357711,0.90981 1.009029,0.0761 2.119265,-0.32243 2.467198,-0.88538 0.45492,-0.73607 0.966902,-0.56636 1.822887,0.60427 1.383946,1.89264 3.997094,1.31193 3.997094,-0.88829 0,-1.34074 0.10676,-1.34246 1.562572,-0.025 0.859428,0.77777 1.830535,1.14617 2.158034,0.81867 0.612884,-0.61288 1.743339,-0.87862 5.987514,-1.40755 3.054831,-0.38072 4.372047,-2.46039 2.975112,-4.69723 -0.808248,-1.29422 -1.51496,-1.49446 -3.383327,-0.9586 -1.993014,0.57159 -2.278852,0.45598 -1.831038,-0.74045 0.45671,-1.22017 0.335217,-1.25887 -0.871726,-0.27764 -0.771313,0.62707 -1.828122,0.87701 -2.348468,0.55541 -1.337231,-0.82643 -6.961056,0.35422 -6.355358,1.33424 0.275401,0.44562 0.09407,0.81021 -0.402956,0.81021 -0.497035,0 -0.903697,-0.576 -0.903697,-1.28 0,-0.704 0.383995,-1.28 0.853343,-1.28 0.469324,0 0.853319,-0.31748 0.853319,-0.70554 0,-0.38804 -1.175049,-0.53307 -2.611243,-0.32229 -1.777972,0.26096 -2.467288,0.7584 -2.160109,1.55886 0.3015,0.78572 -0.190944,1.17564 -1.484757,1.17564 -1.064744,0 -2.332467,0.39659 -2.817194,0.88131 -0.484713,0.48472 -1.531313,0.63186 -2.32578,0.32701 -1.115007,-0.42788 -1.223126,-0.821 -0.474062,-1.72356 1.081676,-1.30334 0.363777,-5.45809 -0.943102,-5.45809 -0.460393,0 -0.837079,0.46916 -0.837079,1.04258 0,0.57343 -0.919644,-0.29058 -2.043637,-1.92 -1.124007,-1.62941 -1.94914,-3.06545 -1.833632,-3.19118 0.11551,-0.12572 1.323155,0.34952 2.683642,1.05609 1.823635,0.94709 2.563327,1.01836 2.814961,0.27126 0.187737,-0.55738 -0.1003,-1.16062 -0.639994,-1.34052 -2.616264,-0.87209 -0.15173,-2.61184 4.565326,-3.22272 1.407995,-0.18233 3.146461,-1.04633 3.863249,-1.91996 1.633346,-1.9908 5.677282,-3.11394 6.146256,-1.70705 0.239495,0.71851 0.927314,0.59905 2.370252,-0.41162 1.476925,-1.03448 2.954735,-1.27645 5.404003,-0.8848 3.245376,0.51896 3.35584,0.45906 2.961128,-1.60581 -0.28124,-1.47121 0.08182,-2.45204 1.155872,-3.12281 1.680663,-1.04959 2.113135,-2.67013 0.712576,-2.67013 -0.469353,0 -1.592848,0.7395 -2.496679,1.64335 -0.972528,0.97252 -2.326551,1.46467 -3.317027,1.20566 -0.920527,-0.24073 -1.92262,-0.0349 -2.226863,0.45738 -0.385481,0.6237 -1.255483,0.62037 -2.869645,-0.0114 -3.603158,-1.40938 -7.009787,-1.79167 -7.009787,-0.78661 0,0.49751 -1.32133,0.90457 -2.936306,0.90457 -1.614967,0 -3.19431,0.41743 -3.509638,0.92766 -0.315338,0.51022 -1.298527,0.73803 -2.184874,0.50626 -0.924412,-0.24175 -1.39104,-0.0647 -1.094401,0.41532 0.284432,0.4602 -0.273383,0.34304 -1.239583,-0.26035 -2.595309,-1.62079 -2.734029,-5.17924 -0.253051,-6.49103 1.104852,-0.58418 2.352845,-0.84953 2.773333,-0.58965 0.420489,0.25987 0.764524,-0.8715 0.764524,-2.51416 0,-3.5507 0.993706,-4.3927 3.425963,-2.90296 1.522656,0.93261 1.912057,0.87856 2.617908,-0.36346 0.456053,-0.80246 2.258756,-1.71777 4.005992,-2.03402 1.747236,-0.31628 4.323529,-1.15649 5.725097,-1.86717 1.401559,-0.71067 3.129565,-1.35541 3.839994,-1.43272 6.518626,-0.70948 9.796713,-2.75627 9.294553,-5.80337 -0.09577,-0.58136 0.126912,-2.13266 0.494928,-3.44729 0.519632,-1.85625 0.312376,-2.66044 -0.927656,-3.59952 -2.685319,-2.0336 -6.587952,-1.41923 -13.632873,2.14611 -9.607954,4.86246 -11.187956,4.58219 -5.722356,-1.01508 1.731506,-1.77324 3.222621,-3.73106 3.313559,-4.35073 0.091,-0.61965 0.943409,-2.73701 1.894355,-4.70523 0.950945,-1.96824 1.39817,-3.5786 0.99383,-3.5786 -0.404328,0 0.154553,-0.96 1.241963,-2.13333 1.087411,-1.17333 2.353559,-2.13334 2.813657,-2.13334 0.46011,0 1.547804,-0.78591 2.417117,-1.74649 1.659662,-1.8339 6.43842,-4.40699 7.736932,-4.16589 1.768519,0.32834 2.718471,-0.15207 3.086935,-1.56114 0.215775,-0.82511 1.892559,-2.2651 3.726198,-3.2 1.833632,-0.9349 3.640967,-2.17981 4.016279,-2.76646 0.375328,-0.58667 1.239328,-1.06667 1.920008,-1.06667 0.68068,0 1.2376,-0.60188 1.2376,-1.3375 0,-0.9296 0.49859,-1.17926 1.63484,-0.81863 0.89918,0.2854 1.88183,0.11927 2.18371,-0.36916 0.30186,-0.48842 1.31371,-0.88804 2.24856,-0.88804 1.60234,0 1.575,0.16355 -0.47702,2.85388 -1.19723,1.56964 -2.17676,3.22243 -2.17676,3.67293 0,0.45048 -1.152,2.63557 -2.56,4.85575 -1.40799,2.22018 -2.559994,4.5767 -2.559994,5.2367 0,1.68572 1.578844,2.46911 2.850034,1.41412 1.58585,-1.31615 4.93629,-0.87443 7.68649,1.01338 1.91431,1.31404 2.3374,2.14092 1.99405,3.89724 -0.325,1.6626 0.0747,2.60925 1.57235,3.72391 1.22925,0.91492 2.21296,1.16314 2.53629,0.64 0.29049,-0.47003 1.36951,-0.86682 2.39779,-0.88173 1.02831,-0.015 2.61505,-0.59092 3.52607,-1.28 2.08785,-1.57916 3.0369,-1.59024 3.0369,-0.0354 0,0.66959 -0.672,1.39305 -1.49332,1.60767 -1.00516,0.26268 -0.79593,0.41881 0.64,0.47759 3.04208,0.12454 6.03653,-0.8034 5.48298,-1.69907 -0.25913,-0.41929 0.20817,-1.02304 1.03848,-1.34164 2.44999,-0.94018 4.57185,-3.09516 4.57185,-4.64328 0,-1.01736 1.00523,-1.61187 3.41332,-2.0187 3.32374,-0.56154 4.90199,-2.06185 1.92001,-1.82518 -0.93699,0.0744 -1.44916,-0.43782 -1.37479,-1.37482 0.15032,-1.89427 -3.29646,-2.03928 -4.82058,-0.20281 -0.77525,0.9341 -1.37232,1.04051 -2.16187,0.38522 -0.69994,-0.5809 -1.27589,-0.60582 -1.60732,-0.0696 -0.28408,0.45966 -1.55036,0.64828 -2.81393,0.41914 -2.34667,-0.42554 -3.02744,-0.21221 -9.4888,2.97348 -3.99713,1.97073 -6.10601,2.31657 -6.10601,1.00129 0,-0.45461 0.59889,-0.59674 1.33091,-0.31583 0.89203,0.3423 1.48968,-0.0964 1.81244,-1.33071 0.33553,-1.2831 0.93631,-1.69711 1.98137,-1.36541 1.67371,0.53122 2.79437,-1.37217 2.01053,-3.41484 -0.581,-1.514 -0.78154,-1.54362 -2.87291,-0.42436 -1.06872,0.57198 -1.77409,0.57198 -2.1276,0 -0.29085,-0.47059 -0.0581,-0.85563 0.51712,-0.85563 0.57525,0 0.82146,-0.22446 0.54713,-0.49879 -0.59614,-0.59614 1.97576,-3.76787 3.05527,-3.76787 0.41524,0 0.52837,0.59053 0.25141,1.31231 -0.28655,0.74672 0.042,1.5216 0.76204,1.79794 0.69608,0.26713 1.2656,1.23929 1.2656,2.16039 0,1.24865 0.48847,1.60533 1.92002,1.40204 1.28179,-0.18205 1.83664,-0.76908 1.66924,-1.76602 -0.1379,-0.82134 0.15009,-1.49334 0.64,-1.49334 0.4899,0 0.89075,0.55335 0.89075,1.22964 0,1.92176 1.77387,2.53773 2.23458,0.77594 0.22718,-0.86871 1.42988,-2.05936 2.6727,-2.64585 2.93534,-1.38528 3.62604,-1.3446 3.62604,0.21358 0,1.32845 1.00851,1.69374 1.98371,0.71853 0.30882,-0.30882 0.16217,-1.04262 -0.32588,-1.63069 -1.32348,-1.5947 0.48999,-2.34636 2.55281,-1.0581 1.33158,0.83158 1.94988,0.84442 2.73742,0.0568 0.78755,-0.78754 0.69614,-1.14058 -0.40471,-1.56302 -1.23498,-0.4739 -1.15187,-0.75817 0.63191,-2.1613 1.12967,-0.88859 2.52038,-1.61562 3.09048,-1.61562 0.80577,0 0.80208,-0.28252 -0.0166,-1.26891 -0.58364,-0.70325 -0.82308,-2.18543 -0.53711,-3.32483 0.46099,-1.8367 0.81227,-1.98483 3.29529,-1.38942 1.52861,0.36655 3.45128,0.9438 4.27261,1.28277 0.89405,0.369 1.49334,0.23724 1.49334,-0.32831 0,-0.51956 1.056,-0.95685 2.34667,-0.97176 2.13331,-0.0246 2.21089,-0.13023 0.85334,-1.16075 -1.99005,-1.51065 -1.8822,-2.64052 0.43043,-4.51018 1.94415,-1.57176 2.66991,-6.36931 1.28561,-8.49858 -0.34682,-0.53347 -0.0493,-1.45254 0.66153,-2.04235 1.15069,-0.95499 1.15154,-1.22773 0.008,-2.49155 -0.77407,-0.85535 -1.09441,-2.2476 -0.80633,-3.50432 0.2629,-1.1468 0.51116,-2.56514 0.55169,-3.1518 0.0406,-0.58667 1.0657,-1.09699 2.27816,-1.13404 1.21243,-0.0371 1.72443,-0.26105 1.13777,-0.49778 -1.65136,-0.66641 -1.25868,-1.99487 0.58977,-1.99487 2.01788,0 3.21231,-1.66059 1.81543,-2.5239 -0.69671,-0.4306 -0.37607,-1.04413 1.02561,-1.96255 1.12156,-0.73487 2.41539,-2.61805 2.87519,-4.18485 0.62297,-2.12281 1.25791,-2.78527 2.49174,-2.59978 1.32852,0.19972 1.41057,0.0842 0.41515,-0.58451 -1.08055,-0.72592 -1.08251,-1.12872 -0.0152,-3.12303 0.67393,-1.2593 2.00019,-2.60393 2.9472,-2.9881 0.94704,-0.38412 1.24187,-0.72276 0.65522,-0.75251 -2.04095,-0.10348 -1.19678,-4.29807 1.07312,-5.33232 2.00185,-0.91209 2.05747,-1.10059 0.86283,-2.92386 -0.70235,-1.0719 -0.98047,-2.13217 -0.61807,-2.35615 0.36241,-0.22399 0.56362,-2.644 0.44715,-5.37782 -0.63194,-14.83212 -0.72284,-15.63729 -1.76503,-15.63729 -0.58668,-1e-5 -1.06667,-0.384 -1.06667,-0.85334 0,-0.46933 0.41141,-0.85333 0.91429,-0.85333 0.50285,0 0.2787,-0.63558 -0.49813,-1.41242 -0.77684,-0.77682 -1.76355,-2.33592 -2.1927,-3.46467 -0.42914,-1.12874 -1.10916,-1.84901 -1.51116,-1.60055 -0.40198,0.24844 -1.58513,-0.45759 -2.6292,-1.56894 -1.32635,-1.41184 -2.77782,-1.99573 -4.81737,-1.93791 -1.60548,0.0455 -2.91905,0.39064 -2.91905,0.76695 0,0.37631 -0.76801,0.68422 -1.70668,0.68422 -0.93866,0 -1.70666,0.384 -1.70666,0.85333 0,0.46935 0.384,0.85333 0.85334,0.85333 0.46932,0 0.85332,0.57599 0.85332,1.27999 0,0.70402 0.38401,1.28001 0.85333,1.28001 0.46934,0 0.85335,0.56869 0.85335,1.26374 0,1.70814 -3.46962,2.46291 -8.11761,1.7659 -2.20658,-0.3309 -3.82906,-0.23746 -3.82906,0.22051 0,1.18955 -7.2281,2.98161 -9.33234,2.31376 -1.12436,-0.35687 -2.02342,-1.54273 -2.32937,-3.07253 -0.61101,-3.05503 -2.3398,-3.20229 -4.20342,-0.35804 -0.7688,1.17333 -1.93951,2.13332 -2.60157,2.13332 -1.02207,0 -1.01291,-0.36907 0.0606,-2.44492 2.25622,-4.36305 9.42371,-6.52332 17.76616,-5.35471 3.55602,0.49812 4.90667,0.41398 4.90667,-0.30565 0,-1.07012 -2.06131,-2.18444 -6.88726,-3.72312 -4.14348,-1.32111 -7.93234,-1.22029 -11.59112,0.30845 -3.83442,1.6021 -13.94833,9.73214 -13.94833,11.21228 0,0.9385 -3.20773,3.38242 -3.52337,2.68436 -0.52169,-1.15377 -0.22802,-4.93667 0.38327,-4.93667 0.42853,0 0.51511,-0.86401 0.1924,-1.92001 -0.32272,-1.05601 -0.71527,-2.76205 -0.87235,-3.79124 -0.15711,-1.02918 -0.52211,-2.25388 -0.81114,-2.72156 -0.28905,-0.46768 -0.27427,-2.42154 0.0328,-4.34193 0.53873,-3.36909 0.78312,-3.59545 6.9652,-6.45175 3.52378,-1.6281 6.92879,-2.960177 7.56668,-2.960177 0.63792,0 1.16424,-0.479993 1.16961,-1.066664 0.0103,-1.064328 4.02914,-3.177903 9.03255,-4.749783 3.05727,-0.960455 10.12891,-0.462263 12.94824,0.912209 1.41064,0.687719 2.19278,0.688895 2.87732,0.0048 0.51703,-0.517048 1.46929,-0.736992 2.11609,-0.488808 0.64683,0.248304 1.17604,0.02632 1.17604,-0.493249 0,-0.519551 0.384,-0.944623 0.85335,-0.944623 0.46932,0 0.85333,0.576 0.85333,1.28 0,0.703991 0.5056,1.28 1.12357,1.28 0.89267,0 0.94273,-0.77944 0.24365,-3.792599 -0.68299,-2.943775 -1.12543,-3.588823 -1.97691,-2.882175 -1.59763,1.325903 -1.44006,-1.395 0.22822,-3.941127 1.18158,-1.803287 1.18754,-2.331895 0.055,-4.876648 -2.98751,-6.712902 -7.21666,-8.447887 -19.24757,-7.896272 -3.49108,0.160062 -6.75508,-0.02674 -7.25334,-0.414992 -0.4983,-0.388324 -2.24998,-0.945676 -3.89264,-1.238562 -1.64268,-0.292888 -5.56235,-1.050918 -8.7104,-1.684518 -3.14806,-0.633591 -6.20172,-0.856573 -6.78592,-0.495516 -0.58422,0.361057 -1.37204,0.464971 -1.75075,0.230928 -0.37871,-0.234056 -2.36089,0.703108 -4.40487,2.082579 -2.044,1.379458 -5.69602,3.165658 -8.11563,3.969327 -4.156649,1.380615 -4.657225,1.380071 -9.075855,-0.0102 -3.466799,-1.090674 -4.676558,-1.882465 -4.676558,-3.061041 0,-2.037257 -2.093136,-2.034163 -4.988278,0.0068 -1.245784,0.87848 -4.202375,2.573075 -6.570201,3.765771 -5.997586,3.021033 -12.675103,9.273232 -17.136151,16.044693 -5.678643,8.619629 -6.531917,11.884557 -6.120111,23.417477 0.192214,5.3835 0.06121,9.78817 -0.291061,9.78817 -0.786273,0 -0.619684,1.65795 2.529462,25.17332 2.601362,19.42493 3.849728,24.09775 7.96691,29.82143 1.332516,1.85246 2.422771,4.20544 2.422771,5.22885 0,1.02339 0.575994,2.33876 1.279998,2.92303 0.703992,0.58426 1.279997,1.82437 1.279997,2.75579 0,1.08672 0.420602,1.53207 1.17394,1.24298 0.71902,-0.27589 1.132371,0.0879 1.06667,0.93909 -0.05905,0.76425 0.948724,1.90685 2.239386,2.53908 1.894909,0.92823 2.346668,1.72523 2.346668,4.13998 0,1.77635 0.346447,2.77634 0.853332,2.46308 0.469336,-0.29006 0.853343,0.0243 0.853343,0.69849 0,0.67422 0.575993,1.70391 1.279997,2.28817 0.703992,0.58427 1.279997,1.89849 1.279997,2.92048 0,1.02201 0.470605,2.3288 1.045795,2.90399 0.825522,0.82552 0.241343,1.75994 -2.773322,4.43615 -2.100531,1.86469 -4.134331,3.39088 -4.519561,3.39154 -1.573248,0.002 -11.349137,7.71762 -12.699685,10.02238 -0.799386,1.3642 -3.072852,3.98749 -5.052149,5.82957 -9.81958,9.13877 -18.096264,17.98309 -18.84864,20.14137 -0.461266,1.32319 -1.185273,2.19159 -1.608879,1.92979 -0.423616,-0.26181 -0.776082,0.41065 -0.78328,1.49435 -0.0102,1.57027 -0.176833,1.71128 -0.819636,0.69452 -0.691696,-1.09414 -0.983303,-1.03414 -2.047526,0.42126 -0.867645,1.18656 -0.958459,1.87169 -0.301897,2.27746 1.341922,0.82935 -1.013029,3.48047 -2.563247,2.88561 -0.812352,-0.31174 -1.098993,0.0234 -0.879275,1.02783 0.179316,0.81968 0.711495,1.41823 1.182635,1.33013 0.471137,-0.0882 0.787541,1.06388 0.703119,2.55999 -0.205666,3.64499 -0.276273,3.77618 -1.234438,2.29355 -0.684975,-1.05992 -0.827196,-0.98658 -0.827196,0.42667 0,0.93867 0.3389,2.24186 0.753111,2.896 0.441965,0.69797 0.411002,2.17074 -0.07491,3.56476 -0.685961,1.96777 -0.513242,2.69026 1.006467,4.20997 2.398461,2.39848 4.774414,1.69342 3.338005,-0.99054 -0.814073,-1.5211 -0.744611,-2.05052 0.376607,-2.87035 0.756137,-0.55289 1.092747,-1.30786 0.748045,-1.67772 -0.344703,-0.36986 -0.05078,-0.4864 0.653265,-0.259 0.824147,0.26621 1.202159,1.29548 1.061444,2.89015 -0.120201,1.36218 -0.236549,3.9167 -0.258547,5.67671 -0.03242,2.58837 -0.357544,3.19999 -1.70145,3.19999 -1.339417,0 -1.661443,0.59683 -1.661443,3.07918 0,2.93025 0.113106,3.05077 2.338111,2.49233 2.403391,-0.60321 3.599216,-1.79988 3.622144,-3.62474 0.0068,-0.57192 0.589072,-0.81884 1.293064,-0.54868 0.704004,0.27015 1.280009,1.06204 1.280009,1.75977 0,0.69772 0.731113,1.45976 1.6247,1.69345 1.372217,0.35884 1.50867,0.82944 0.878049,3.02827 -1.019454,3.55464 -0.284319,4.33982 3.497125,3.73514 2.925347,-0.46779 3.183748,-0.35596 2.776484,1.20137 -0.246975,0.94445 -0.786691,1.92583 -1.199372,2.18088 -1.021869,0.63157 -0.950299,2.06969 0.10302,2.06969 0.469337,0 0.853332,-0.37194 0.853332,-0.82655 z m 3.413338,-3.01345 c 0,-0.704 0.342913,-1.28001 0.762031,-1.28001 0.419116,0 0.983063,0.57601 1.253216,1.28001 0.2992,0.77969 0.0011,1.28 -0.76203,1.28 -0.689271,0 -1.253217,-0.57601 -1.253217,-1.28 z m 26.026659,-4.69334 c -0.290065,-0.46933 -0.120733,-0.85333 0.3763,-0.85333 0.497034,0 0.903697,0.384 0.903697,0.85333 0,0.46935 -0.169342,0.85334 -0.376311,0.85334 -0.206969,0 -0.613631,-0.38399 -0.903686,-0.85334 z m -33.013327,-2.28958 c 0.616,-0.24651 1.351998,-0.21619 1.635559,0.0673 0.28356,0.28356 -0.220446,0.48522 -1.120006,0.44817 -0.994079,-0.0408 -1.196289,-0.24314 -0.515553,-0.51554 z m -3.055295,-4.53707 c -0.959469,-1.53637 -0.852221,-1.70667 1.074739,-1.70667 2.330348,0 2.386867,0.0718 1.622593,2.06354 -0.689576,1.79702 -1.411883,1.70146 -2.697332,-0.35687 z m 7.600708,-12.72661 c -0.913399,-0.56451 -0.909228,-0.75813 0.02301,-1.07006 2.048748,-0.6855 6.68001,-0.30282 6.898221,0.56999 0.261663,1.04667 -5.377597,1.4541 -6.921251,0.50007 z M 38.399977,261.90919 c 0,-0.7431 0.607999,-1.3511 1.351114,-1.3511 0.743104,0 1.199111,0.456 1.013323,1.01334 -0.527419,1.58226 -2.364437,1.84469 -2.364437,0.33776 z m 71.964413,-42.73775 c 0,-0.70401 0.31999,-1.27999 0.7111,-1.27999 0.39113,0 0.71112,0.57598 0.71112,1.27999 0,0.704 -0.31999,1.28 -0.71112,1.28 -0.39111,0 -0.7111,-0.576 -0.7111,-1.28 z m 13.36888,-2.98666 c 0,-0.46933 0.40667,-0.85334 0.90369,-0.85334 0.49703,0 0.66637,0.38401 0.37631,0.85334 -0.29007,0.46934 -0.69673,0.85334 -0.90369,0.85334 -0.20697,0 -0.37631,-0.384 -0.37631,-0.85334 z m 7.83076,-4.83594 c 0.41518,-2.14082 2.40923,-2.43478 2.40923,-0.35516 0,1.04816 -0.55099,1.77776 -1.34258,1.77776 -0.79464,0 -1.22996,-0.58058 -1.06665,-1.4226 z m -20.44136,-5.18283 c 0.26869,-1.02744 0.009,-2.26245 -0.57816,-2.74976 -1.62916,-1.35209 -11.202251,-2.15062 -11.91705,-0.99403 -0.3272,0.52941 -2.396239,0.95403 -4.59787,0.94359 -3.958567,-0.0187 -3.98187,-0.0354 -2.101704,-1.49333 1.359592,-1.05429 1.756344,-2.02269 1.392624,-3.39892 -0.540248,-2.04405 1.074887,-4.77675 2.355487,-3.98528 0.419472,0.25924 0.986696,-0.11244 1.260504,-0.82597 0.345264,-0.89975 1.211375,-1.1546 2.826183,-0.83165 2.156676,0.43134 2.528536,0.059 5.042826,-5.04814 1.49293,-3.03262 2.71443,-5.72338 2.71443,-5.9795 0,-1.15747 -6.01653,-4.01823 -8.450736,-4.01823 -3.081799,0 -6.909246,-2.18157 -6.909246,-3.93813 0,-1.7271 2.870519,-1.44458 6.383766,0.6283 2.987966,1.76295 3.168556,1.77178 6.921746,0.33841 2.71733,-1.03777 4.53208,-2.50112 6.15411,-4.96247 1.26521,-1.91988 3.107,-4.30136 4.0929,-5.29214 1.60757,-1.61556 1.98176,-1.67577 3.62665,-0.58359 1.47531,0.97954 1.83413,0.9971 1.83413,0.0897 0,-0.8774 0.22756,-0.90052 1.02401,-0.10404 1.48398,1.48395 4.15413,1.25594 5.49588,-0.46934 1.0922,-1.40438 1.21351,-1.40649 2.03665,-0.0354 0.4814,0.80182 1.43138,1.24449 2.11102,0.98368 1.30704,-0.50154 7.25242,2.74332 7.25242,3.95823 0,0.39267 0.2331,1.32135 0.51798,2.06374 0.3399,0.88574 0.0465,1.34979 -0.85333,1.34979 -1.59195,0 -1.77316,0.96346 -0.4332,2.30342 1.48859,1.4886 0.10585,4.22882 -3.62483,7.1836 -2.82742,2.23937 -4.16156,2.71426 -7.42025,2.64114 -2.91516,-0.0653 -3.5186,0.10608 -2.26634,0.64421 0.93866,0.40335 2.97836,1.91858 4.53266,3.36716 3.18567,2.969 3.57399,3.12602 3.57399,1.44509 0,-1.67727 2.3709,-2.38589 4.38188,-1.30964 0.93401,0.49987 2.83989,0.94131 4.23527,0.981 1.39538,0.0397 2.73802,0.3973 2.98365,0.79474 0.24562,0.39744 2.12926,0.7226 4.18587,0.7226 2.05661,0 4.01717,0.44967 4.35682,0.99921 0.40293,0.65195 0.89645,0.28122 1.41998,-1.06665 0.76469,-1.9688 0.83276,-1.98567 1.44804,-0.35923 0.81258,2.14794 0.3145,3.52195 -1.52387,4.2038 -0.78887,0.29261 -2.39729,1.07481 -3.57423,1.73825 -2.02431,1.14106 -10.34098,2.52113 -21.7534,3.60979 -2.816,0.26861 -5.50399,0.7684 -5.97332,1.1106 -0.46934,0.34223 -1.98251,0.89287 -3.36259,1.22362 -1.38009,0.33078 -4.0392,1.81317 -5.90916,3.29417 -3.09458,2.45096 -3.35613,2.5253 -2.91219,0.82765 z m 4.9306,-11.31455 c 1.83994,-0.93866 4.32063,-1.70666 5.51268,-1.70666 1.19202,0 2.16735,-0.28802 2.16737,-0.64001 1.1e-4,-1.28759 -9.9337,-0.35601 -14.08004,1.32041 l -4.26667,1.72505 2.98667,0.36737 c 1.64267,0.20206 3.28997,0.42882 3.66066,0.50394 0.3707,0.0751 2.17939,-0.63143 4.01933,-1.5701 z M 61.653302,138.50489 c -2.147314,-0.86312 -2.35969,-1.82405 -0.974949,-4.41146 0.639664,-1.19522 1.143237,-1.44519 1.558345,-0.77354 0.418799,0.67764 2.440438,-0.23293 6.375052,-2.87137 3.16898,-2.12505 6.307723,-3.8637 6.974996,-3.8637 0.667272,0 1.213209,-0.40407 1.213209,-0.89792 0,-1.24006 8.735958,-0.6551 9.153485,0.61291 0.180192,0.54726 -0.328247,1.12326 -1.129854,1.28002 -1.233664,0.24122 -1.112137,0.6126 0.791375,2.41833 2.642806,2.50705 2.920431,3.73213 0.684959,3.02261 -1.058935,-0.33608 -2.483127,0.32548 -4.24623,1.97246 -3.301105,3.08368 -6.461607,3.79713 -8.218942,1.85529 -0.715802,-0.79094 -1.301452,-2.07985 -1.301452,-2.86423 0,-2.15284 -1.489356,-1.71351 -3.12062,0.92053 -2.696617,4.35428 -4.175708,5.04053 -7.759374,3.60007 z m 90.933288,-14.20965 c 0.61598,-0.24651 1.35199,-0.2162 1.63555,0.0672 0.28355,0.28354 -0.22045,0.48522 -1.12,0.44817 -0.99409,-0.0409 -1.19628,-0.24315 -0.51555,-0.51554 z m -94.908158,-2.40373 c -1.173011,-1.79028 -1.198771,-2.13335 -0.160139,-2.13335 0.680714,0 3.740711,-1.30468 6.799985,-2.89927 3.059285,-1.59461 6.447179,-2.90782 7.528673,-2.91826 1.081484,-0.0102 2.928101,-0.26849 4.103582,-0.57348 2.082567,-0.54036 5.484094,0.70373 12.796082,4.68008 1.642672,0.8933 3.296639,1.74703 3.675503,1.89717 0.378856,0.15014 0.41544,0.98546 0.08126,1.85627 -0.532816,1.38849 -1.247496,1.51828 -5.80883,1.05494 -8.554749,-0.86899 -12.817882,-1.42795 -13.981667,-1.83323 -0.605223,-0.21077 -1.757221,-0.0508 -2.559994,0.35548 -1.452174,0.73495 -8.916632,2.64696 -10.333673,2.64696 -0.408622,0 -1.371956,-0.95999 -2.140764,-2.13331 z m -2.642184,-3.84605 c -0.669233,-1.08282 1.719629,-2.05934 3.04063,-1.24291 0.718987,0.44436 0.672361,0.80722 -0.172471,1.34254 -1.525523,0.96661 -2.224188,0.94235 -2.868159,-0.0996 z m 59.310372,-2.55395 c 0,-0.46935 0.40666,-0.85334 0.90368,-0.85334 0.49703,0 0.66637,0.38399 0.37631,0.85334 -0.29006,0.46933 -0.69672,0.85332 -0.90369,0.85332 -0.20698,0 -0.3763,-0.38399 -0.3763,-0.85332 z m -69.546644,186.8799 c -0.290066,-0.46934 -0.888726,-0.85333 -1.330364,-0.85333 -0.441636,0 -0.802965,0.38399 -0.802965,0.85333 0,0.46932 0.598659,0.85333 1.330351,0.85333 0.731703,0 1.093043,-0.38401 0.802978,-0.85333 z M 17.49332,300.66473 c 0.290065,-0.46933 -0.09395,-0.85333 -0.853333,-0.85333 -0.759389,0 -1.143397,0.384 -0.85333,0.85333 0.290064,0.46933 0.67406,0.85335 0.85333,0.85335 0.179271,0 0.563267,-0.38402 0.853333,-0.85335 z m 20.636243,-2.71999 c -0.272395,-0.68072 -0.474605,-0.47853 -0.515553,0.51557 -0.03706,0.89953 0.164629,1.40354 0.448189,1.11998 0.283559,-0.28355 0.313875,-1.01955 0.06732,-1.63555 z m 50.608333,-3.69053 c -0.814656,-0.98159 -1.350343,-1.0587 -2.237824,-0.32218 -1.642255,1.36295 -1.476384,1.61271 1.071032,1.61271 1.900527,0 2.076392,-0.19451 1.166792,-1.29053 z m -66.551242,-5.21917 c 0,-1.9334 -1.298788,-0.60245 -2.150001,2.20324 -0.587406,1.93614 -0.530467,1.98883 0.757419,0.70095 0.765917,-0.76592 1.392582,-2.07281 1.392582,-2.90419 z m 66.133297,2.24304 c 0.290065,-0.46933 0.143393,-0.85334 -0.325943,-0.85334 -0.469336,0 -1.090655,0.38401 -1.38072,0.85334 -0.290064,0.46933 -0.143383,0.85333 0.325953,0.85333 0.469335,0 1.090647,-0.384 1.38071,-0.85333 z m 60.509979,-10.11595 c 0.24789,-0.40113 -0.53393,-1.64911 -1.73737,-2.77334 -3.00431,-2.80648 -4.85385,-6.47108 -3.64353,-7.21909 0.52274,-0.32309 0.72477,-1.63555 0.45747,-2.97205 -0.55773,-2.78876 1.06845,-6.46186 4.28493,-9.67833 2.39192,-2.39191 2.23085,-3.73506 -0.3147,-2.62451 -0.84158,0.36716 -1.80359,0.61147 -2.13781,0.54287 -0.33422,-0.0685 -1.6166,0.81037 -2.84978,1.95324 -1.31054,1.21457 -4.20407,2.48521 -6.9642,3.05821 -4.00864,0.8322 -4.86174,1.35034 -5.64648,3.42934 -0.50843,1.34697 -1.32684,2.55792 -1.81868,2.69099 -0.49185,0.13308 -2.7464,2.23373 -5.01011,4.66811 -2.92781,3.14852 -4.03514,4.99592 -3.83614,6.40001 0.27106,1.91255 0.57793,1.98131 9.88355,2.21515 5.97243,0.15008 10.28531,-0.12342 11.40621,-0.72331 1.43436,-0.76764 2.0808,-0.68622 3.16571,0.39869 1.47196,1.47196 4.03232,1.81292 4.76093,0.63402 z m -16.90761,-5.96406 c -0.29528,-0.4778 -0.12108,-1.12571 0.38712,-1.43982 1.31199,-0.81084 2.15849,0.29983 1.06325,1.39508 -0.61285,0.61285 -1.09016,0.62756 -1.45037,0.0448 z m -114.236958,3.28001 c -0.07073,-0.93866 -0.430848,-1.70666 -0.800303,-1.70666 -0.369455,0 -0.671737,0.768 -0.671737,1.70666 0,0.93867 0.360138,1.70666 0.800303,1.70666 0.440163,0 0.742446,-0.76799 0.671737,-1.70666 z m 58.642889,-0.92622 c -0.274755,-0.44456 -0.863282,-0.58348 -1.307843,-0.30873 -0.444551,0.27475 -0.583486,0.86328 -0.308732,1.30785 0.274754,0.44454 0.863271,0.58347 1.307831,0.30871 0.444562,-0.27473 0.583497,-0.86327 0.308744,-1.30783 z m 12.418364,-2.31644 c 0,-0.86868 -1.841526,-2.73068 -2.700639,-2.73068 -0.358959,0 -1.063655,0.76801 -1.566022,1.70668 -0.820128,1.53242 -0.648953,1.70667 1.676647,1.70667 1.424511,0 2.590014,-0.30721 2.590014,-0.68267 z m 2.143712,-2.57808 c -0.678072,-0.67805 -2.145239,0.86124 -1.624287,1.70414 0.354335,0.57334 0.794103,0.48606 1.247527,-0.24758 0.385128,-0.62319 0.554688,-1.27863 0.37676,-1.45656 z m 24.144473,-2.48909 c -0.34951,-4.1139 -1.99476,-4.44808 -3.24522,-0.65916 -1.34647,4.07986 -0.64794,5.96088 1.73921,4.68331 1.3791,-0.73807 1.71005,-1.62239 1.50601,-4.02415 z m -19.461515,-0.2235 c 0,-0.46932 -0.169335,-0.85333 -0.376304,-0.85333 -0.206968,0 -0.613632,0.38401 -0.903695,0.85333 -0.290064,0.46935 -0.120736,0.85334 0.376304,0.85334 0.497031,0 0.903695,-0.38399 0.903695,-0.85334 z m -1.937775,-2.22223 c -0.283568,-0.28355 -1.019568,-0.31385 -1.635559,-0.0673 -0.68072,0.2724 -0.478536,0.47461 0.515559,0.51554 0.89956,0.0371 1.403552,-0.16462 1.12,-0.44817 z m 7.22441,-2.63073 c 2.94629,-2.82274 3.01198,-3.68036 0.28194,-3.68036 -1.475049,0 -2.503809,0.75878 -3.413328,2.51762 -0.716056,1.38468 -1.301919,2.72869 -1.301919,2.98666 0,1.18748 2.260999,0.25726 4.433307,-1.82392 z m 54.59281,-12.77263 c 0.85829,-0.77672 1.55464,-1.83273 1.54745,-2.34665 -0.009,-0.59705 -0.24935,-0.56264 -0.66754,0.0953 -0.35996,0.56636 -1.98608,1.60733 -3.61359,2.31325 -2.5931,1.12477 -2.70354,1.28767 -0.893,1.31693 1.13638,0.0184 2.76838,-0.60212 3.62668,-1.37886 z m -53.05278,-7.12106 c 0,-0.46933 -0.928,-0.85333 -2.06223,-0.85333 -1.134213,0 -2.212876,-0.452 -2.39702,-1.00441 -0.378463,-1.13542 -2.367415,-0.20695 -2.367415,1.10512 0,0.46935 0.380959,0.61789 0.846576,0.33014 0.465608,-0.28777 1.521616,-0.1301 2.346655,0.35034 1.932674,1.12547 3.633434,1.15924 3.633434,0.0721 z m 73.39761,-7.70162 c 10.52023,-8.22747 12.78901,-10.54022 12.78901,-13.03691 0,-1.20469 0.38459,-3.20194 0.85466,-4.4383 l 0.85466,-2.24793 -2.77466,1.93822 c -1.52608,1.06604 -6.42266,5.60978 -10.88132,10.09724 -4.45867,4.48743 -9.35118,9.11379 -10.87226,10.2808 -1.52106,1.16702 -2.76906,2.74858 -2.77332,3.51461 -0.0133,2.38659 4.99949,-0.006 12.80323,-6.10773 z m -65.71762,-0.14904 c 0,-1.37849 -0.25233,-1.625 -0.94965,-0.92769 -0.5223,0.52231 -0.69164,1.36711 -0.3763,1.87733 0.88268,1.42821 1.32595,1.11072 1.32595,-0.94964 z m 3.41333,0.17068 c 0,-0.46935 -0.36132,-0.85334 -0.80297,-0.85334 -0.44163,0 -1.04029,0.38399 -1.33036,0.85334 -0.29006,0.46933 0.0713,0.85331 0.80297,0.85331 0.7317,0 1.33036,-0.38398 1.33036,-0.85331 z m 80.95172,-20.09688 c 0.26971,-1.39187 0.1259,-1.45456 -1.06666,-0.46479 -1.63094,1.35353 -1.83402,2.93558 -0.31176,2.42872 0.58666,-0.19534 1.20694,-1.07911 1.37842,-1.96393 z M 2.5599982,205.34744 c 0,-2.3417 -0.2483835,-2.90894 -0.9615219,-2.19581 -0.5431485,0.54316 -0.72172782,1.91695 -0.4104127,3.15734 0.7847935,3.12688 1.3719346,2.71537 1.3719346,-0.96153 z M 230.11011,202.05575 c 0.2805,-0.73098 1.03646,-1.12702 1.67989,-0.88013 1.33886,0.51379 1.61634,-1.68085 0.31424,-2.48559 -0.56545,-0.34946 -0.57047,-1.06166 -0.0149,-2.09993 0.70687,-1.32082 0.57128,-1.50064 -0.85104,-1.12869 -1.17169,0.3064 -1.69187,0.0183 -1.69187,-0.93709 0,-1.85725 -1.02088,-1.73749 -2.78867,0.32714 -1.23256,1.43954 -1.26224,1.72335 -0.18964,1.81333 0.69941,0.0585 1.71965,0.15466 2.26721,0.21333 0.54754,0.0585 1.16659,0.6198 1.37565,1.24694 0.2832,0.8496 -0.45732,1.06815 -2.90463,0.8573 -2.64355,-0.22776 -3.34381,0.0239 -3.58742,1.28879 -0.23601,1.22547 0.0683,1.45401 1.38135,1.03728 1.09709,-0.3482 1.85862,-0.0796 2.18498,0.77093 0.64788,1.68835 2.17269,1.6756 2.82474,-0.0236 z m 9.75978,-2.69749 c -0.77625,-1.33367 -0.88797,-1.24973 -0.91072,0.6843 -0.0143,1.21245 0.26203,2.49491 0.61403,2.8499 1.02514,1.03385 1.26847,-1.86461 0.29669,-3.5342 z m -169.043256,1.03986 c 0,-1.90357 -0.797787,-2.5463 -2.773333,-2.23439 -0.352001,0.0555 -0.640005,-0.28294 -0.640005,-0.75227 0,-0.46934 -0.383995,-0.85333 -0.853332,-0.85333 -1.107855,0 -1.092396,2.22549 0.03003,4.32276 1.330657,2.48637 4.236648,2.15522 4.236648,-0.48277 z m -34.986652,-0.80298 c 0,-0.20697 -0.383995,-0.61363 -0.853343,-0.90369 -0.469324,-0.29006 -0.853321,-0.12073 -0.853321,0.37631 0,0.49703 0.383997,0.90368 0.853321,0.90368 0.469348,0 0.853343,-0.16933 0.853343,-0.3763 z m 0.853333,-4.74368 c 0.704002,-0.45497 0.896,-0.8272 0.426664,-0.8272 -0.469335,0 -1.429336,0.37223 -2.13334,0.8272 -0.703992,0.45496 -0.89599,0.82719 -0.426654,0.82719 0.469324,0 1.429326,-0.37223 2.13333,-0.82719 z M 230.38681,179.27812 c -0.0102,-1.49906 -0.18494,-1.64828 -0.79702,-0.68075 -0.43118,0.6816 -0.59464,1.54561 -0.36324,1.92001 0.74015,1.19759 1.1737,0.73454 1.16026,-1.23926 z m -7.05459,-10.65492 c -0.19614,-1.29711 -0.36187,-0.4384 -0.36827,1.90826 -0.006,2.34667 0.15407,3.40796 0.35662,2.35841 0.20255,-1.04955 0.20779,-2.96954 0.0116,-4.26667 z M 2.2895862,152.0248 c -0.2724034,-0.68073 -0.4746116,-0.47853 -0.515552,0.51557 -0.03706,0.89955 0.1646267,1.40356 0.4481854,1.12 0.2835521,-0.28357 0.3138686,-1.01957 0.067367,-1.63557 z M 40.959982,141.8441 c 0,-0.46933 -0.384006,-0.61601 -0.853343,-0.32594 -0.469324,0.29005 -0.85333,0.91138 -0.85333,1.38071 0,0.46933 0.384006,0.61601 0.85333,0.32595 0.469337,-0.29006 0.853343,-0.9114 0.853343,-1.38072 z M 5.1199974,115.91817 c 0,-0.70401 -0.3719484,-1.28 -0.8265532,-1.28 -0.4546047,0 -0.6055226,0.57599 -0.3353724,1.28 0.2701503,0.70399 0.6420989,1.27999 0.8265533,1.27999 0.1844543,0 0.3353723,-0.576 0.3353723,-1.27999 z M 157.01026,109.94123 c -0.5485,-0.66091 -0.76578,-1.57617 -0.48285,-2.03396 0.28291,-0.45777 -0.34546,-1.43461 -1.39642,-2.17072 -1.05095,-0.73611 -1.53737,-1.34403 -1.08094,-1.35094 0.45643,-0.006 -0.13013,-0.52133 -1.30346,-1.1431 -1.43747,-0.76174 -2.65163,-0.87033 -3.72229,-0.33288 -0.87393,0.43868 -2.57366,0.60938 -3.77718,0.3793 -2.702,-0.51651 -4.88363,1.40271 -3.95328,3.47784 0.57178,1.27533 0.70446,1.21555 0.99557,-0.4486 0.18474,-1.056 0.93219,-1.92 1.66103,-1.92 1.08113,0 1.12951,0.23569 0.26282,1.28 -0.90521,1.09071 -0.67319,1.28001 1.56893,1.28001 1.63006,0 3.31155,0.73055 4.41915,1.91999 2.61667,2.81 7.15513,4.85851 7.52238,3.39534 0.15608,-0.62186 -0.16497,-1.6714 -0.71346,-2.33228 z m 89.75938,-39.861264 c -0.61231,-0.612316 -1.00976,-0.662705 -1.00976,-0.127998 0,1.13901 1.00914,2.148176 1.57866,1.578665 0.24248,-0.242489 -0.0135,-0.895288 -0.5689,-1.450667 z m -0.78722,-5.029572 c -0.63473,-2.42727 -1.07743,-1.943631 -1.06281,1.161122 0.009,1.885572 0.24857,2.401647 0.74874,1.612211 0.40461,-0.638621 0.54595,-1.886625 0.31407,-2.773333 z M 65.706633,65.99819 c 0,-0.469337 -0.361341,-0.853333 -0.802978,-0.853333 -0.441626,0 -1.040297,0.383996 -1.330362,0.853333 -0.290065,0.469334 0.07129,0.853331 0.802977,0.853331 0.731702,0 1.330363,-0.383997 1.330363,-0.853331 z m 32.426643,0 c 1.001167,-0.646998 0.779768,-0.830054 -1.016288,-0.840265 -1.262975,-0.0068 -2.533639,0.370928 -2.823702,0.840265 -0.673424,1.089619 2.153935,1.089619 3.83999,0 z M 46.933303,46.175745 c 0,-0.49946 -0.542208,-0.416521 -1.279996,0.195784 -0.704004,0.584267 -1.279998,1.195234 -1.279998,1.35771 0,0.162464 0.575994,0.07434 1.279998,-0.195784 0.704004,-0.270151 1.279996,-0.88112 1.279996,-1.35771 z m 5.546668,-2.36421 c 0.297874,-0.481974 -0.401018,-0.853333 -1.605945,-0.853333 -1.173338,0 -2.370659,0.383996 -2.660725,0.853333 -0.297873,0.481971 0.401019,0.853329 1.605956,0.853329 1.173328,0 2.370649,-0.383995 2.660714,-0.853329 z M 129.70661,16.504873 c 0,-0.469336 -0.72694,-0.853328 -1.61538,-0.853328 -0.88846,0 -1.8575,-0.630959 -2.15342,-1.402135 -0.29593,-0.771184 -0.75212,-1.188064 -1.01378,-0.926416 -0.26163,0.261649 -0.0472,1.2766 0.47678,2.255464 0.95957,1.792951 4.3058,2.512911 4.3058,0.926415 z M 70.242185,2.8492782 C 69.132198,1.8512866 63.999969,1.1106308 63.999969,1.9484385 c 0,0.4184958 0.480001,0.9545757 1.066671,1.1913035 0.656755,0.265008 0.512154,0.4562879 -0.376312,0.4977678 -1.917009,0.089536 -2.897478,1.7906875 -1.521999,2.6407831 1.296998,0.8015837 8.107411,-2.499735 7.073856,-3.4290147 z M 1.2799996,275.06475 c -0.2900674,-0.46933 0.071276,-0.85333 0.8029686,-0.85333 0.7316988,0 1.3303615,0.384 1.3303615,0.85333 0,0.46932 -0.3613382,0.85334 -0.8029697,0.85334 -0.4416382,0 -1.0402997,-0.38402 -1.3303604,-0.85334 z M 0,266.53142 c 0,-0.46933 0.38400035,-0.85334 0.85333049,-0.85334 0.46933121,0 0.85333161,0.38401 0.85333161,0.85334 0,0.46932 -0.3840004,0.85333 -0.85333161,0.85333 C 0.38400035,267.38475 0,267.00074 0,266.53142 Z m 0.5145603,-11.23555 c 0.2417206,-0.39112 0.800831,-0.71112 1.2424625,-0.71112 0.4416382,0 0.8029754,0.32 0.8029754,0.71112 0,0.39111 -0.5591094,0.71112 -1.2424626,0.71112 -0.68335318,0 -1.0446914,-0.32001 -0.8029753,-0.71112 z M 0,249.607 c 0,-0.86046 0.57599939,-1.56446 1.2799996,-1.56446 0.7039992,0 1.2799986,0.704 1.2799986,1.56446 0,0.86043 -0.5759994,1.56444 -1.2799986,1.56444 C 0.57599939,251.17144 0,250.46743 0,249.607 Z m 249.59987,-91.44887 c 0.29007,-0.46933 0.69673,-0.85332 0.9037,-0.85332 0.20697,0 0.37631,0.38399 0.37631,0.85332 0,0.46935 -0.40666,0.85334 -0.90371,0.85334 -0.49703,0 -0.66637,-0.38399 -0.3763,-0.85334 z m -1.28001,-76.799951 c 0,-0.469336 0.40667,-0.853328 0.9037,-0.853328 0.49703,0 0.66638,0.383992 0.37631,0.853328 -0.29007,0.469335 -0.69674,0.853344 -0.9037,0.853344 -0.20696,0 -0.37631,-0.384009 -0.37631,-0.853344 z m 5.54667,-22.186654 c -0.29007,-0.469335 0.0713,-0.853332 0.80298,-0.853332 0.73169,0 1.33035,0.383997 1.33035,0.853332 0,0.469335 -0.36133,0.853332 -0.80297,0.853332 -0.44162,0 -1.0403,-0.383997 -1.33036,-0.853332 z m -19.62666,-19.62666 c 0.29007,-0.469325 0.69674,-0.853333 0.90371,-0.853333 0.20696,0 0.3763,0.384008 0.3763,0.853333 0,0.469335 -0.40667,0.853343 -0.90371,0.853343 -0.49702,0 -0.66636,-0.384008 -0.3763,-0.853343 z m 17.49333,0.02358 c 0,-1.156735 1.51645,-1.875042 2.06947,-0.980254 0.26439,0.42781 -0.0931,0.998025 -0.79437,1.267147 -0.7013,0.269108 -1.2751,0.14001 -1.2751,-0.286893 z m -6.82665,-0.776197 c 0,-0.469324 0.38399,-1.090652 0.85333,-1.380716 0.46931,-0.290065 0.85332,-0.143391 0.85332,0.325946 0,0.469335 -0.38401,1.090651 -0.85332,1.380717 -0.46934,0.290065 -0.85333,0.143388 -0.85333,-0.325947 z M 39.253309,5.888573 c 0,-0.7316957 0.384006,-1.3303514 0.85333,-1.3303514 0.469337,0 0.853343,0.3613278 0.853343,0.8029677 0,0.4416318 -0.384006,1.0402956 -0.853343,1.3303595 -0.469324,0.2900638 -0.85333,-0.07128 -0.85333,-0.8029758 z M 38.826643,1.1448788 c -0.290065,-0.46933587 0.09395,-0.85332773 0.853332,-0.85332773 0.759401,0 1.143396,0.38399186 0.853331,0.85332773 -0.290065,0.4693358 -0.67406,0.8533357 -0.853331,0.8533357 -0.17926,0 -0.563266,-0.3839999 -0.853332,-0.8533357 z m 14.506659,0 c -0.290065,-0.46933587 0.09395,-0.85332773 0.853333,-0.85332773 0.759399,0 1.143396,0.38399186 0.853342,0.85332773 -0.290076,0.4693358 -0.674073,0.8533357 -0.853342,0.8533357 -0.179272,0 -0.563268,-0.3839999 -0.853333,-0.8533357 z"
     id="path3715" />
</svg>
